<svg xmlns="http://www.w3.org/2000/svg" width="89.241" height="87.058" viewBox="0 0 89.241 87.058"><path d="M44.417 22.403c-10.794 0-19.575 8.781-19.575 19.576 0 4.416 1.448 8.591 4.187 12.068.54.688 1.108 1.346 1.71 2.044l.033.038c1.84 2.135 3.741 4.342 4.452 6.941.161.596.183 1.738.174 2.618v1.495a2.479 2.479 0 0 0 2.478 2.479h12.975a2.478 2.478 0 0 0 2.478-2.479v-1.514c-.008-1.148.051-1.986.171-2.422.715-2.582 2.823-5.062 4.699-7.27l.081-.095a63.742 63.742 0 0 0 1.52-1.829c2.742-3.48 4.191-7.655 4.191-12.076 0-10.792-8.781-19.574-19.574-19.574zm11.488 28.586c-.409.52-.889 1.085-1.399 1.684l-.1.117c-2.191 2.578-4.676 5.5-5.684 9.141-.142.518-.301 1.29-.341 2.775H40.35c-.035-1.578-.196-2.387-.342-2.933-1.008-3.688-3.488-6.566-5.481-8.88l-.033-.039a53.664 53.664 0 0 1-1.568-1.871 14.423 14.423 0 0 1-3.126-9.004c0-8.062 6.558-14.62 14.619-14.62 8.06 0 14.617 6.559 14.617 14.62a14.424 14.424 0 0 1-3.131 9.01zm-5.054 19.377H37.876a2.478 2.478 0 0 0 0 4.956h12.975a2.477 2.477 0 1 0 0-4.956zm-3.244 5.653H41.12a2.477 2.477 0 1 0 0 4.956h6.487a2.477 2.477 0 1 0 0-4.956zm31.002-36.518h-8.548a2.478 2.478 0 1 0 0 4.957h8.548a2.478 2.478 0 1 0 0-4.957zm-57.358 2.478a2.479 2.479 0 0 0-2.478-2.479h-8.549a2.478 2.478 0 1 0 0 4.957h8.549a2.478 2.478 0 0 0 2.478-2.478zm23.166-23.164a2.478 2.478 0 0 0 2.478-2.479v-8.55a2.478 2.478 0 1 0-4.956 0v8.551a2.477 2.477 0 0 0 2.478 2.478zm19.884 39.544a2.478 2.478 0 1 0-3.504 3.504l6.045 6.046c.484.484 1.118.727 1.752.727s1.268-.242 1.752-.726a2.48 2.48 0 0 0 0-3.505l-6.045-6.046zM24.529 25.597a2.473 2.473 0 0 0 3.504 0 2.478 2.478 0 0 0 .001-3.504l-6.043-6.045a2.479 2.479 0 0 0-3.504 3.504l6.042 6.045zm.003 32.762l-6.045 6.046a2.479 2.479 0 0 0 3.504 3.504l6.045-6.047a2.477 2.477 0 1 0-3.504-3.503zM62.55 26.323c.634 0 1.269-.242 1.752-.727l6.043-6.044a2.48 2.48 0 0 0-3.504-3.505l-6.043 6.045a2.478 2.478 0 0 0 1.752 4.231z" fill="#3A3A3A"/></svg>